<mxfile host="app.diagrams.net" agent="Mozilla/5.0 (Windows NT 10.0; Win64; x64) AppleWebKit/537.36 (KHTML, like Gecko) Chrome/131.0.0.0 Safari/537.36 Edg/131.0.0.0" version="25.0.3">
  <diagram name="第 1 页" id="BEPfm012HWBrJYS6_Jwx">
    <mxGraphModel dx="2040" dy="776" grid="1" gridSize="10" guides="1" tooltips="1" connect="1" arrows="1" fold="1" page="1" pageScale="1" pageWidth="827" pageHeight="1169" math="0" shadow="0">
      <root>
        <mxCell id="0" />
        <mxCell id="1" parent="0" />
        <mxCell id="A0dzTfghXdayMWGV7KRl-123" value="" style="group" vertex="1" connectable="0" parent="1">
          <mxGeometry x="-320" y="180" width="750" height="460" as="geometry" />
        </mxCell>
        <mxCell id="A0dzTfghXdayMWGV7KRl-44" style="edgeStyle=orthogonalEdgeStyle;rounded=0;orthogonalLoop=1;jettySize=auto;html=1;exitX=1;exitY=0.5;exitDx=0;exitDy=0;" edge="1" parent="A0dzTfghXdayMWGV7KRl-123" source="A0dzTfghXdayMWGV7KRl-45">
          <mxGeometry relative="1" as="geometry">
            <mxPoint x="500" y="405" as="targetPoint" />
          </mxGeometry>
        </mxCell>
        <mxCell id="A0dzTfghXdayMWGV7KRl-45" value="" style="rounded=1;whiteSpace=wrap;html=1;dashed=1;" vertex="1" parent="A0dzTfghXdayMWGV7KRl-123">
          <mxGeometry x="410" y="372.06999999999994" width="90" height="65.29" as="geometry" />
        </mxCell>
        <mxCell id="A0dzTfghXdayMWGV7KRl-46" value="" style="rounded=0;whiteSpace=wrap;html=1;fillColor=#f5f5f5;strokeColor=#666666;fontColor=#333333;dashed=1;" vertex="1" parent="A0dzTfghXdayMWGV7KRl-123">
          <mxGeometry x="498" y="40" width="90" height="150" as="geometry" />
        </mxCell>
        <mxCell id="A0dzTfghXdayMWGV7KRl-47" value="Match" style="edgeStyle=orthogonalEdgeStyle;rounded=0;orthogonalLoop=1;jettySize=auto;html=1;exitX=0.5;exitY=1;exitDx=0;exitDy=0;exitPerimeter=0;entryX=0.5;entryY=0;entryDx=0;entryDy=0;labelBackgroundColor=none;fontStyle=1;horizontal=0;verticalAlign=bottom;fontFamily=Times New Roman;" edge="1" parent="A0dzTfghXdayMWGV7KRl-123" source="A0dzTfghXdayMWGV7KRl-48" target="A0dzTfghXdayMWGV7KRl-65">
          <mxGeometry relative="1" as="geometry" />
        </mxCell>
        <mxCell id="A0dzTfghXdayMWGV7KRl-48" value="hash" style="shape=cylinder3;whiteSpace=wrap;html=1;boundedLbl=1;backgroundOutline=1;size=15;fillColor=#d5e8d4;strokeColor=#000000;labelBackgroundColor=none;fontFamily=Times New Roman;" vertex="1" parent="A0dzTfghXdayMWGV7KRl-123">
          <mxGeometry x="93" y="50" width="60" height="80" as="geometry" />
        </mxCell>
        <mxCell id="A0dzTfghXdayMWGV7KRl-49" value="QUEUE 0" style="endArrow=none;html=1;rounded=0;horizontal=0;verticalAlign=bottom;fontStyle=1;labelBackgroundColor=none;strokeColor=#000000;fontFamily=Times New Roman;" edge="1" parent="A0dzTfghXdayMWGV7KRl-123">
          <mxGeometry width="50" height="50" relative="1" as="geometry">
            <mxPoint x="33" y="130" as="sourcePoint" />
            <mxPoint x="33" y="50" as="targetPoint" />
          </mxGeometry>
        </mxCell>
        <mxCell id="A0dzTfghXdayMWGV7KRl-50" value="" style="endArrow=none;html=1;rounded=0;labelBackgroundColor=none;strokeColor=#000000;fontFamily=Times New Roman;" edge="1" parent="A0dzTfghXdayMWGV7KRl-123">
          <mxGeometry width="50" height="50" relative="1" as="geometry">
            <mxPoint x="73" y="130" as="sourcePoint" />
            <mxPoint x="73" y="50" as="targetPoint" />
          </mxGeometry>
        </mxCell>
        <mxCell id="A0dzTfghXdayMWGV7KRl-51" value="" style="endArrow=none;html=1;rounded=0;labelBackgroundColor=none;strokeColor=#000000;fontFamily=Times New Roman;" edge="1" parent="A0dzTfghXdayMWGV7KRl-123">
          <mxGeometry width="50" height="50" relative="1" as="geometry">
            <mxPoint x="32.41000000000008" y="250" as="sourcePoint" />
            <mxPoint x="32.41000000000008" y="170" as="targetPoint" />
          </mxGeometry>
        </mxCell>
        <mxCell id="A0dzTfghXdayMWGV7KRl-52" value="" style="endArrow=none;html=1;rounded=0;labelBackgroundColor=none;strokeColor=#000000;fontFamily=Times New Roman;" edge="1" parent="A0dzTfghXdayMWGV7KRl-123">
          <mxGeometry width="50" height="50" relative="1" as="geometry">
            <mxPoint x="72.41000000000008" y="250" as="sourcePoint" />
            <mxPoint x="72.41000000000008" y="170" as="targetPoint" />
          </mxGeometry>
        </mxCell>
        <mxCell id="A0dzTfghXdayMWGV7KRl-53" value="CORE" style="ellipse;whiteSpace=wrap;html=1;aspect=fixed;fillColor=#dae8fc;strokeColor=#000000;labelBackgroundColor=none;fontFamily=Times New Roman;" vertex="1" parent="A0dzTfghXdayMWGV7KRl-123">
          <mxGeometry x="13" y="110" width="80" height="80" as="geometry" />
        </mxCell>
        <mxCell id="A0dzTfghXdayMWGV7KRl-54" value="" style="rounded=1;whiteSpace=wrap;html=1;fillColor=#f5f5f5;fontColor=#333333;strokeColor=#000000;labelBackgroundColor=none;fontFamily=Times New Roman;" vertex="1" parent="A0dzTfghXdayMWGV7KRl-123">
          <mxGeometry x="33" y="200" width="40" height="20" as="geometry" />
        </mxCell>
        <mxCell id="A0dzTfghXdayMWGV7KRl-55" value="" style="rounded=1;whiteSpace=wrap;html=1;fillColor=#f5f5f5;fontColor=#333333;strokeColor=#000000;labelBackgroundColor=none;fontFamily=Times New Roman;" vertex="1" parent="A0dzTfghXdayMWGV7KRl-123">
          <mxGeometry x="33" y="90" width="40" height="20" as="geometry" />
        </mxCell>
        <mxCell id="A0dzTfghXdayMWGV7KRl-56" value="" style="rounded=1;whiteSpace=wrap;html=1;fillColor=#f5f5f5;fontColor=#333333;strokeColor=#000000;labelBackgroundColor=none;fontFamily=Times New Roman;" vertex="1" parent="A0dzTfghXdayMWGV7KRl-123">
          <mxGeometry x="33" y="70" width="40" height="20" as="geometry" />
        </mxCell>
        <mxCell id="A0dzTfghXdayMWGV7KRl-57" style="edgeStyle=orthogonalEdgeStyle;rounded=0;orthogonalLoop=1;jettySize=auto;html=1;exitX=1;exitY=0.5;exitDx=0;exitDy=0;entryX=0.145;entryY=1;entryDx=0;entryDy=-4.35;entryPerimeter=0;labelBackgroundColor=none;strokeColor=#000000;fontFamily=Times New Roman;" edge="1" parent="A0dzTfghXdayMWGV7KRl-123" source="A0dzTfghXdayMWGV7KRl-53" target="A0dzTfghXdayMWGV7KRl-48">
          <mxGeometry relative="1" as="geometry" />
        </mxCell>
        <mxCell id="A0dzTfghXdayMWGV7KRl-58" value="" style="ellipse;whiteSpace=wrap;html=1;aspect=fixed;fillColor=#fff2cc;strokeColor=default;labelBackgroundColor=none;fontFamily=Times New Roman;" vertex="1" parent="A0dzTfghXdayMWGV7KRl-123">
          <mxGeometry x="40" y="340" width="120" height="120" as="geometry" />
        </mxCell>
        <mxCell id="A0dzTfghXdayMWGV7KRl-59" value="" style="endArrow=none;html=1;rounded=0;exitX=0;exitY=0;exitDx=0;exitDy=0;entryX=1;entryY=1;entryDx=0;entryDy=0;labelBackgroundColor=none;strokeColor=default;fontFamily=Times New Roman;" edge="1" parent="A0dzTfghXdayMWGV7KRl-123" source="A0dzTfghXdayMWGV7KRl-58" target="A0dzTfghXdayMWGV7KRl-58">
          <mxGeometry width="50" height="50" relative="1" as="geometry">
            <mxPoint x="201.5" y="230" as="sourcePoint" />
            <mxPoint x="251.5" y="180" as="targetPoint" />
          </mxGeometry>
        </mxCell>
        <mxCell id="A0dzTfghXdayMWGV7KRl-60" value="" style="endArrow=none;html=1;rounded=0;exitX=0;exitY=0.5;exitDx=0;exitDy=0;entryX=1;entryY=0.5;entryDx=0;entryDy=0;labelBackgroundColor=none;strokeColor=default;fontFamily=Times New Roman;" edge="1" parent="A0dzTfghXdayMWGV7KRl-123" source="A0dzTfghXdayMWGV7KRl-58" target="A0dzTfghXdayMWGV7KRl-58">
          <mxGeometry width="50" height="50" relative="1" as="geometry">
            <mxPoint x="211.5" y="240" as="sourcePoint" />
            <mxPoint x="261.5" y="190" as="targetPoint" />
          </mxGeometry>
        </mxCell>
        <mxCell id="A0dzTfghXdayMWGV7KRl-61" value="" style="endArrow=none;html=1;rounded=0;exitX=0.5;exitY=0;exitDx=0;exitDy=0;entryX=0.5;entryY=1;entryDx=0;entryDy=0;labelBackgroundColor=none;strokeColor=default;fontFamily=Times New Roman;" edge="1" parent="A0dzTfghXdayMWGV7KRl-123" source="A0dzTfghXdayMWGV7KRl-58" target="A0dzTfghXdayMWGV7KRl-58">
          <mxGeometry width="50" height="50" relative="1" as="geometry">
            <mxPoint x="211.5" y="240" as="sourcePoint" />
            <mxPoint x="261.5" y="190" as="targetPoint" />
          </mxGeometry>
        </mxCell>
        <mxCell id="A0dzTfghXdayMWGV7KRl-62" value="" style="endArrow=none;html=1;rounded=0;exitX=1;exitY=0;exitDx=0;exitDy=0;entryX=0;entryY=1;entryDx=0;entryDy=0;labelBackgroundColor=none;strokeColor=default;fontFamily=Times New Roman;" edge="1" parent="A0dzTfghXdayMWGV7KRl-123" source="A0dzTfghXdayMWGV7KRl-58" target="A0dzTfghXdayMWGV7KRl-58">
          <mxGeometry width="50" height="50" relative="1" as="geometry">
            <mxPoint x="221.5" y="250" as="sourcePoint" />
            <mxPoint x="271.5" y="200" as="targetPoint" />
          </mxGeometry>
        </mxCell>
        <mxCell id="A0dzTfghXdayMWGV7KRl-63" value="RING" style="ellipse;whiteSpace=wrap;html=1;aspect=fixed;fillColor=#f5f5f5;fontColor=#333333;strokeColor=default;labelBackgroundColor=none;fontStyle=1;fontFamily=Times New Roman;" vertex="1" parent="A0dzTfghXdayMWGV7KRl-123">
          <mxGeometry x="60" y="360" width="80" height="80" as="geometry" />
        </mxCell>
        <mxCell id="A0dzTfghXdayMWGV7KRl-64" style="edgeStyle=orthogonalEdgeStyle;rounded=0;orthogonalLoop=1;jettySize=auto;html=1;exitX=0;exitY=0.5;exitDx=0;exitDy=0;entryX=0;entryY=0;entryDx=0;entryDy=0;" edge="1" parent="A0dzTfghXdayMWGV7KRl-123" source="A0dzTfghXdayMWGV7KRl-65" target="A0dzTfghXdayMWGV7KRl-58">
          <mxGeometry relative="1" as="geometry" />
        </mxCell>
        <mxCell id="A0dzTfghXdayMWGV7KRl-65" value="" style="rounded=1;whiteSpace=wrap;html=1;fillColor=#fff2cc;strokeColor=default;labelBackgroundColor=none;verticalAlign=top;labelPosition=center;verticalLabelPosition=bottom;align=center;fontFamily=Times New Roman;" vertex="1" parent="A0dzTfghXdayMWGV7KRl-123">
          <mxGeometry x="103" y="290" width="40" height="20" as="geometry" />
        </mxCell>
        <mxCell id="A0dzTfghXdayMWGV7KRl-66" style="edgeStyle=orthogonalEdgeStyle;rounded=0;orthogonalLoop=1;jettySize=auto;html=1;exitX=0.5;exitY=1;exitDx=0;exitDy=0;exitPerimeter=0;labelBackgroundColor=none;fontFamily=Times New Roman;" edge="1" parent="A0dzTfghXdayMWGV7KRl-123">
          <mxGeometry relative="1" as="geometry">
            <mxPoint x="410" y="339.71000000000004" as="targetPoint" />
            <mxPoint x="410" y="339.71000000000004" as="sourcePoint" />
          </mxGeometry>
        </mxCell>
        <mxCell id="A0dzTfghXdayMWGV7KRl-67" value="hash" style="shape=cylinder3;whiteSpace=wrap;html=1;boundedLbl=1;backgroundOutline=1;size=15;fillColor=#d5e8d4;strokeColor=#000000;labelBackgroundColor=none;fontFamily=Times New Roman;" vertex="1" parent="A0dzTfghXdayMWGV7KRl-123">
          <mxGeometry x="233" y="50" width="60" height="80" as="geometry" />
        </mxCell>
        <mxCell id="A0dzTfghXdayMWGV7KRl-68" value="&lt;span style=&quot;color: rgb(0, 0, 0); font-size: 11px; font-variant-ligatures: normal; font-variant-caps: normal; letter-spacing: normal; orphans: 2; text-align: center; text-indent: 0px; text-transform: none; widows: 2; word-spacing: 0px; -webkit-text-stroke-width: 0px; white-space: nowrap; text-decoration-thickness: initial; text-decoration-style: initial; text-decoration-color: initial; float: none; display: inline !important;&quot;&gt;QUEUE 1&lt;/span&gt;" style="endArrow=none;html=1;rounded=0;horizontal=0;labelBackgroundColor=none;fontStyle=1;verticalAlign=bottom;strokeColor=#000000;fontFamily=Times New Roman;" edge="1" parent="A0dzTfghXdayMWGV7KRl-123">
          <mxGeometry width="50" height="50" relative="1" as="geometry">
            <mxPoint x="173" y="130" as="sourcePoint" />
            <mxPoint x="173" y="50" as="targetPoint" />
          </mxGeometry>
        </mxCell>
        <mxCell id="A0dzTfghXdayMWGV7KRl-69" value="" style="endArrow=none;html=1;rounded=0;labelBackgroundColor=none;strokeColor=#000000;fontFamily=Times New Roman;" edge="1" parent="A0dzTfghXdayMWGV7KRl-123">
          <mxGeometry width="50" height="50" relative="1" as="geometry">
            <mxPoint x="213" y="130" as="sourcePoint" />
            <mxPoint x="213" y="50" as="targetPoint" />
          </mxGeometry>
        </mxCell>
        <mxCell id="A0dzTfghXdayMWGV7KRl-70" value="" style="endArrow=none;html=1;rounded=0;labelBackgroundColor=none;strokeColor=#000000;fontFamily=Times New Roman;" edge="1" parent="A0dzTfghXdayMWGV7KRl-123">
          <mxGeometry width="50" height="50" relative="1" as="geometry">
            <mxPoint x="172.41000000000008" y="250" as="sourcePoint" />
            <mxPoint x="172.41000000000008" y="170" as="targetPoint" />
          </mxGeometry>
        </mxCell>
        <mxCell id="A0dzTfghXdayMWGV7KRl-71" value="" style="endArrow=none;html=1;rounded=0;labelBackgroundColor=none;strokeColor=#000000;fontFamily=Times New Roman;" edge="1" parent="A0dzTfghXdayMWGV7KRl-123">
          <mxGeometry width="50" height="50" relative="1" as="geometry">
            <mxPoint x="212.41000000000008" y="250" as="sourcePoint" />
            <mxPoint x="212.41000000000008" y="170" as="targetPoint" />
          </mxGeometry>
        </mxCell>
        <mxCell id="A0dzTfghXdayMWGV7KRl-72" value="CORE" style="ellipse;whiteSpace=wrap;html=1;aspect=fixed;fillColor=#dae8fc;strokeColor=#000000;labelBackgroundColor=none;fontFamily=Times New Roman;" vertex="1" parent="A0dzTfghXdayMWGV7KRl-123">
          <mxGeometry x="153" y="110" width="80" height="80" as="geometry" />
        </mxCell>
        <mxCell id="A0dzTfghXdayMWGV7KRl-73" value="" style="rounded=1;whiteSpace=wrap;html=1;fillColor=#f5f5f5;fontColor=#333333;strokeColor=#000000;labelBackgroundColor=none;fontFamily=Times New Roman;" vertex="1" parent="A0dzTfghXdayMWGV7KRl-123">
          <mxGeometry x="173" y="200" width="40" height="20" as="geometry" />
        </mxCell>
        <mxCell id="A0dzTfghXdayMWGV7KRl-74" value="" style="rounded=1;whiteSpace=wrap;html=1;fillColor=#f5f5f5;fontColor=#333333;strokeColor=#000000;labelBackgroundColor=none;fontFamily=Times New Roman;" vertex="1" parent="A0dzTfghXdayMWGV7KRl-123">
          <mxGeometry x="173" y="90" width="40" height="20" as="geometry" />
        </mxCell>
        <mxCell id="A0dzTfghXdayMWGV7KRl-75" value="" style="rounded=1;whiteSpace=wrap;html=1;fillColor=#f5f5f5;fontColor=#333333;strokeColor=#000000;labelBackgroundColor=none;fontFamily=Times New Roman;" vertex="1" parent="A0dzTfghXdayMWGV7KRl-123">
          <mxGeometry x="173" y="70" width="40" height="20" as="geometry" />
        </mxCell>
        <mxCell id="A0dzTfghXdayMWGV7KRl-76" style="edgeStyle=orthogonalEdgeStyle;rounded=0;orthogonalLoop=1;jettySize=auto;html=1;exitX=1;exitY=0.5;exitDx=0;exitDy=0;entryX=0.145;entryY=1;entryDx=0;entryDy=-4.35;entryPerimeter=0;labelBackgroundColor=none;strokeColor=#000000;fontFamily=Times New Roman;" edge="1" parent="A0dzTfghXdayMWGV7KRl-123" source="A0dzTfghXdayMWGV7KRl-72" target="A0dzTfghXdayMWGV7KRl-67">
          <mxGeometry relative="1" as="geometry" />
        </mxCell>
        <mxCell id="A0dzTfghXdayMWGV7KRl-77" style="edgeStyle=orthogonalEdgeStyle;rounded=0;orthogonalLoop=1;jettySize=auto;html=1;exitX=1;exitY=0.5;exitDx=0;exitDy=0;exitPerimeter=0;entryX=0;entryY=0.5;entryDx=0;entryDy=0;" edge="1" parent="A0dzTfghXdayMWGV7KRl-123" source="A0dzTfghXdayMWGV7KRl-78" target="A0dzTfghXdayMWGV7KRl-115">
          <mxGeometry relative="1" as="geometry" />
        </mxCell>
        <mxCell id="A0dzTfghXdayMWGV7KRl-78" value="hash" style="shape=cylinder3;whiteSpace=wrap;html=1;boundedLbl=1;backgroundOutline=1;size=15;fillColor=#d5e8d4;strokeColor=#000000;labelBackgroundColor=none;fontFamily=Times New Roman;" vertex="1" parent="A0dzTfghXdayMWGV7KRl-123">
          <mxGeometry x="513" y="50" width="60" height="80" as="geometry" />
        </mxCell>
        <mxCell id="A0dzTfghXdayMWGV7KRl-79" value="&lt;span style=&quot;color: rgb(0, 0, 0); font-size: 11px; font-style: normal; font-variant-ligatures: normal; font-variant-caps: normal; letter-spacing: normal; orphans: 2; text-align: center; text-indent: 0px; text-transform: none; widows: 2; word-spacing: 0px; -webkit-text-stroke-width: 0px; white-space: nowrap; text-decoration-thickness: initial; text-decoration-style: initial; text-decoration-color: initial; float: none; display: inline !important;&quot;&gt;QUEUE N&lt;/span&gt;" style="endArrow=none;html=1;rounded=0;horizontal=0;fontStyle=1;verticalAlign=bottom;labelBackgroundColor=none;strokeColor=#000000;fontFamily=Times New Roman;" edge="1" parent="A0dzTfghXdayMWGV7KRl-123">
          <mxGeometry width="50" height="50" relative="1" as="geometry">
            <mxPoint x="453" y="130" as="sourcePoint" />
            <mxPoint x="453" y="50" as="targetPoint" />
          </mxGeometry>
        </mxCell>
        <mxCell id="A0dzTfghXdayMWGV7KRl-80" value="" style="endArrow=none;html=1;rounded=0;labelBackgroundColor=none;strokeColor=#000000;fontFamily=Times New Roman;" edge="1" parent="A0dzTfghXdayMWGV7KRl-123">
          <mxGeometry width="50" height="50" relative="1" as="geometry">
            <mxPoint x="493" y="130" as="sourcePoint" />
            <mxPoint x="493" y="50" as="targetPoint" />
          </mxGeometry>
        </mxCell>
        <mxCell id="A0dzTfghXdayMWGV7KRl-81" value="" style="endArrow=none;html=1;rounded=0;labelBackgroundColor=none;strokeColor=#000000;fontFamily=Times New Roman;" edge="1" parent="A0dzTfghXdayMWGV7KRl-123">
          <mxGeometry width="50" height="50" relative="1" as="geometry">
            <mxPoint x="452.4100000000001" y="250" as="sourcePoint" />
            <mxPoint x="452.4100000000001" y="170" as="targetPoint" />
          </mxGeometry>
        </mxCell>
        <mxCell id="A0dzTfghXdayMWGV7KRl-82" value="" style="endArrow=none;html=1;rounded=0;labelBackgroundColor=none;strokeColor=#000000;fontFamily=Times New Roman;" edge="1" parent="A0dzTfghXdayMWGV7KRl-123">
          <mxGeometry width="50" height="50" relative="1" as="geometry">
            <mxPoint x="492.4100000000001" y="250" as="sourcePoint" />
            <mxPoint x="492.4100000000001" y="170" as="targetPoint" />
          </mxGeometry>
        </mxCell>
        <mxCell id="A0dzTfghXdayMWGV7KRl-83" value="CORE" style="ellipse;whiteSpace=wrap;html=1;aspect=fixed;fillColor=#dae8fc;strokeColor=#000000;labelBackgroundColor=none;fontFamily=Times New Roman;" vertex="1" parent="A0dzTfghXdayMWGV7KRl-123">
          <mxGeometry x="433" y="110" width="80" height="80" as="geometry" />
        </mxCell>
        <mxCell id="A0dzTfghXdayMWGV7KRl-84" value="" style="rounded=1;whiteSpace=wrap;html=1;fillColor=#f5f5f5;fontColor=#333333;strokeColor=#000000;labelBackgroundColor=none;fontFamily=Times New Roman;" vertex="1" parent="A0dzTfghXdayMWGV7KRl-123">
          <mxGeometry x="453" y="200" width="40" height="20" as="geometry" />
        </mxCell>
        <mxCell id="A0dzTfghXdayMWGV7KRl-85" value="" style="rounded=1;whiteSpace=wrap;html=1;fillColor=#f5f5f5;fontColor=#333333;strokeColor=#000000;labelBackgroundColor=none;fontFamily=Times New Roman;" vertex="1" parent="A0dzTfghXdayMWGV7KRl-123">
          <mxGeometry x="453" y="90" width="40" height="20" as="geometry" />
        </mxCell>
        <mxCell id="A0dzTfghXdayMWGV7KRl-86" value="" style="rounded=1;whiteSpace=wrap;html=1;fillColor=#f5f5f5;fontColor=#333333;strokeColor=#000000;labelBackgroundColor=none;fontFamily=Times New Roman;" vertex="1" parent="A0dzTfghXdayMWGV7KRl-123">
          <mxGeometry x="453" y="70" width="40" height="20" as="geometry" />
        </mxCell>
        <mxCell id="A0dzTfghXdayMWGV7KRl-87" style="edgeStyle=orthogonalEdgeStyle;rounded=0;orthogonalLoop=1;jettySize=auto;html=1;exitX=1;exitY=0.5;exitDx=0;exitDy=0;entryX=0.145;entryY=1;entryDx=0;entryDy=-4.35;entryPerimeter=0;labelBackgroundColor=none;strokeColor=#000000;fontFamily=Times New Roman;" edge="1" parent="A0dzTfghXdayMWGV7KRl-123" source="A0dzTfghXdayMWGV7KRl-83" target="A0dzTfghXdayMWGV7KRl-78">
          <mxGeometry relative="1" as="geometry" />
        </mxCell>
        <mxCell id="A0dzTfghXdayMWGV7KRl-88" value="" style="group;labelBackgroundColor=none;strokeColor=none;fontFamily=Times New Roman;" vertex="1" connectable="0" parent="A0dzTfghXdayMWGV7KRl-123">
          <mxGeometry x="283" y="140" width="120" height="20" as="geometry" />
        </mxCell>
        <mxCell id="A0dzTfghXdayMWGV7KRl-89" value="" style="shape=waypoint;sketch=0;fillStyle=solid;size=6;pointerEvents=1;points=[];fillColor=none;resizable=0;rotatable=0;perimeter=centerPerimeter;snapToPoint=1;labelBackgroundColor=none;strokeColor=#000000;fontFamily=Times New Roman;" vertex="1" parent="A0dzTfghXdayMWGV7KRl-88">
          <mxGeometry x="20" width="20" height="20" as="geometry" />
        </mxCell>
        <mxCell id="A0dzTfghXdayMWGV7KRl-90" value="" style="shape=waypoint;sketch=0;fillStyle=solid;size=6;pointerEvents=1;points=[];fillColor=none;resizable=0;rotatable=0;perimeter=centerPerimeter;snapToPoint=1;labelBackgroundColor=none;strokeColor=#000000;fontFamily=Times New Roman;" vertex="1" parent="A0dzTfghXdayMWGV7KRl-88">
          <mxGeometry x="40" width="20" height="20" as="geometry" />
        </mxCell>
        <mxCell id="A0dzTfghXdayMWGV7KRl-91" value="" style="shape=waypoint;sketch=0;fillStyle=solid;size=6;pointerEvents=1;points=[];fillColor=none;resizable=0;rotatable=0;perimeter=centerPerimeter;snapToPoint=1;labelBackgroundColor=none;strokeColor=#000000;fontFamily=Times New Roman;" vertex="1" parent="A0dzTfghXdayMWGV7KRl-88">
          <mxGeometry x="58.5" width="20" height="20" as="geometry" />
        </mxCell>
        <mxCell id="A0dzTfghXdayMWGV7KRl-92" value="" style="shape=waypoint;sketch=0;fillStyle=solid;size=6;pointerEvents=1;points=[];fillColor=none;resizable=0;rotatable=0;perimeter=centerPerimeter;snapToPoint=1;labelBackgroundColor=none;strokeColor=#000000;fontFamily=Times New Roman;" vertex="1" parent="A0dzTfghXdayMWGV7KRl-88">
          <mxGeometry x="80" width="20" height="20" as="geometry" />
        </mxCell>
        <mxCell id="A0dzTfghXdayMWGV7KRl-93" value="" style="shape=waypoint;sketch=0;fillStyle=solid;size=6;pointerEvents=1;points=[];fillColor=none;resizable=0;rotatable=0;perimeter=centerPerimeter;snapToPoint=1;labelBackgroundColor=none;strokeColor=#000000;fontFamily=Times New Roman;" vertex="1" parent="A0dzTfghXdayMWGV7KRl-88">
          <mxGeometry x="100" width="20" height="20" as="geometry" />
        </mxCell>
        <mxCell id="A0dzTfghXdayMWGV7KRl-94" value="" style="shape=waypoint;sketch=0;fillStyle=solid;size=6;pointerEvents=1;points=[];fillColor=none;resizable=0;rotatable=0;perimeter=centerPerimeter;snapToPoint=1;labelBackgroundColor=none;strokeColor=#000000;fontFamily=Times New Roman;" vertex="1" parent="A0dzTfghXdayMWGV7KRl-88">
          <mxGeometry width="20" height="20" as="geometry" />
        </mxCell>
        <mxCell id="A0dzTfghXdayMWGV7KRl-95" value="" style="endArrow=classic;html=1;rounded=0;entryX=0.5;entryY=0;entryDx=0;entryDy=0;labelBackgroundColor=none;fontFamily=Times New Roman;" edge="1" parent="A0dzTfghXdayMWGV7KRl-123" target="A0dzTfghXdayMWGV7KRl-56">
          <mxGeometry width="50" height="50" relative="1" as="geometry">
            <mxPoint x="53" y="20" as="sourcePoint" />
            <mxPoint x="400" y="140" as="targetPoint" />
          </mxGeometry>
        </mxCell>
        <mxCell id="A0dzTfghXdayMWGV7KRl-96" value="" style="endArrow=classic;html=1;rounded=0;entryX=0.5;entryY=0;entryDx=0;entryDy=0;labelBackgroundColor=none;fontFamily=Times New Roman;" edge="1" parent="A0dzTfghXdayMWGV7KRl-123">
          <mxGeometry width="50" height="50" relative="1" as="geometry">
            <mxPoint x="192.5" y="20" as="sourcePoint" />
            <mxPoint x="192.5" y="70" as="targetPoint" />
          </mxGeometry>
        </mxCell>
        <mxCell id="A0dzTfghXdayMWGV7KRl-97" value="" style="endArrow=classic;html=1;rounded=0;entryX=0.5;entryY=0;entryDx=0;entryDy=0;labelBackgroundColor=none;fontFamily=Times New Roman;" edge="1" parent="A0dzTfghXdayMWGV7KRl-123">
          <mxGeometry width="50" height="50" relative="1" as="geometry">
            <mxPoint x="472.5" y="20" as="sourcePoint" />
            <mxPoint x="472.5" y="70" as="targetPoint" />
          </mxGeometry>
        </mxCell>
        <mxCell id="A0dzTfghXdayMWGV7KRl-98" value="" style="endArrow=classic;html=1;rounded=0;entryX=0.5;entryY=0;entryDx=0;entryDy=0;labelBackgroundColor=none;fontFamily=Times New Roman;" edge="1" parent="A0dzTfghXdayMWGV7KRl-123">
          <mxGeometry width="50" height="50" relative="1" as="geometry">
            <mxPoint x="52.5" y="220" as="sourcePoint" />
            <mxPoint x="52.5" y="270" as="targetPoint" />
          </mxGeometry>
        </mxCell>
        <mxCell id="A0dzTfghXdayMWGV7KRl-99" value="" style="endArrow=classic;html=1;rounded=0;entryX=0.5;entryY=0;entryDx=0;entryDy=0;labelBackgroundColor=none;fontFamily=Times New Roman;" edge="1" parent="A0dzTfghXdayMWGV7KRl-123">
          <mxGeometry width="50" height="50" relative="1" as="geometry">
            <mxPoint x="192.5" y="220" as="sourcePoint" />
            <mxPoint x="192.5" y="270" as="targetPoint" />
          </mxGeometry>
        </mxCell>
        <mxCell id="A0dzTfghXdayMWGV7KRl-100" value="" style="endArrow=classic;html=1;rounded=0;entryX=0.5;entryY=0;entryDx=0;entryDy=0;labelBackgroundColor=none;fontFamily=Times New Roman;" edge="1" parent="A0dzTfghXdayMWGV7KRl-123">
          <mxGeometry width="50" height="50" relative="1" as="geometry">
            <mxPoint x="472.5" y="220" as="sourcePoint" />
            <mxPoint x="472.5" y="270" as="targetPoint" />
          </mxGeometry>
        </mxCell>
        <mxCell id="A0dzTfghXdayMWGV7KRl-101" value="Match" style="edgeStyle=orthogonalEdgeStyle;rounded=0;orthogonalLoop=1;jettySize=auto;html=1;exitX=0.5;exitY=1;exitDx=0;exitDy=0;exitPerimeter=0;labelBackgroundColor=none;fontStyle=1;horizontal=0;verticalAlign=bottom;fontFamily=Times New Roman;" edge="1" parent="A0dzTfghXdayMWGV7KRl-123" source="A0dzTfghXdayMWGV7KRl-67" target="A0dzTfghXdayMWGV7KRl-103">
          <mxGeometry relative="1" as="geometry">
            <mxPoint x="263" y="290" as="targetPoint" />
            <mxPoint x="263" y="130" as="sourcePoint" />
          </mxGeometry>
        </mxCell>
        <mxCell id="A0dzTfghXdayMWGV7KRl-102" style="edgeStyle=orthogonalEdgeStyle;rounded=0;orthogonalLoop=1;jettySize=auto;html=1;exitX=0.5;exitY=1;exitDx=0;exitDy=0;entryX=0.5;entryY=0;entryDx=0;entryDy=0;" edge="1" parent="A0dzTfghXdayMWGV7KRl-123" source="A0dzTfghXdayMWGV7KRl-103" target="A0dzTfghXdayMWGV7KRl-58">
          <mxGeometry relative="1" as="geometry">
            <Array as="points">
              <mxPoint x="263" y="320" />
              <mxPoint x="100" y="320" />
            </Array>
          </mxGeometry>
        </mxCell>
        <mxCell id="A0dzTfghXdayMWGV7KRl-103" value="" style="rounded=1;whiteSpace=wrap;html=1;fillColor=#fff2cc;strokeColor=default;labelBackgroundColor=none;labelPosition=center;verticalLabelPosition=bottom;align=center;verticalAlign=top;fontFamily=Times New Roman;" vertex="1" parent="A0dzTfghXdayMWGV7KRl-123">
          <mxGeometry x="243" y="290" width="40" height="20" as="geometry" />
        </mxCell>
        <mxCell id="A0dzTfghXdayMWGV7KRl-104" value="" style="endArrow=none;html=1;rounded=0;labelBackgroundColor=none;fontFamily=Times New Roman;" edge="1" parent="A0dzTfghXdayMWGV7KRl-123">
          <mxGeometry width="50" height="50" relative="1" as="geometry">
            <mxPoint x="329" y="384" as="sourcePoint" />
            <mxPoint x="489" y="384" as="targetPoint" />
          </mxGeometry>
        </mxCell>
        <mxCell id="A0dzTfghXdayMWGV7KRl-105" value="" style="endArrow=none;html=1;rounded=0;labelBackgroundColor=none;fontFamily=Times New Roman;" edge="1" parent="A0dzTfghXdayMWGV7KRl-123">
          <mxGeometry width="50" height="50" relative="1" as="geometry">
            <mxPoint x="330" y="425" as="sourcePoint" />
            <mxPoint x="490" y="425" as="targetPoint" />
          </mxGeometry>
        </mxCell>
        <mxCell id="A0dzTfghXdayMWGV7KRl-106" style="edgeStyle=orthogonalEdgeStyle;rounded=0;orthogonalLoop=1;jettySize=auto;html=1;exitX=0.5;exitY=0;exitDx=0;exitDy=0;entryX=0.5;entryY=1;entryDx=0;entryDy=0;labelBackgroundColor=none;fontFamily=Times New Roman;" edge="1" parent="A0dzTfghXdayMWGV7KRl-123" source="A0dzTfghXdayMWGV7KRl-107" target="A0dzTfghXdayMWGV7KRl-109">
          <mxGeometry relative="1" as="geometry" />
        </mxCell>
        <mxCell id="A0dzTfghXdayMWGV7KRl-107" value="" style="rounded=1;whiteSpace=wrap;html=1;rotation=90;fillColor=#fff2cc;strokeColor=default;labelBackgroundColor=none;fontFamily=Times New Roman;" vertex="1" parent="A0dzTfghXdayMWGV7KRl-123">
          <mxGeometry x="341" y="394.71000000000004" width="40" height="20" as="geometry" />
        </mxCell>
        <mxCell id="A0dzTfghXdayMWGV7KRl-108" value="Batch" style="shape=flexArrow;endArrow=classic;html=1;rounded=0;verticalAlign=top;labelBackgroundColor=none;fontStyle=1;fillColor=#f5f5f5;strokeColor=default;fontFamily=Times New Roman;" edge="1" parent="A0dzTfghXdayMWGV7KRl-123">
          <mxGeometry width="50" height="50" relative="1" as="geometry">
            <mxPoint x="200" y="439" as="sourcePoint" />
            <mxPoint x="320" y="439" as="targetPoint" />
          </mxGeometry>
        </mxCell>
        <mxCell id="A0dzTfghXdayMWGV7KRl-109" value="" style="rounded=1;whiteSpace=wrap;html=1;rotation=90;fillColor=#fff2cc;strokeColor=default;labelBackgroundColor=none;fontFamily=Times New Roman;" vertex="1" parent="A0dzTfghXdayMWGV7KRl-123">
          <mxGeometry x="427" y="394.71000000000004" width="40" height="20" as="geometry" />
        </mxCell>
        <mxCell id="A0dzTfghXdayMWGV7KRl-110" value="" style="rounded=1;whiteSpace=wrap;html=1;rotation=90;fillColor=#fff2cc;strokeColor=default;labelBackgroundColor=none;fontFamily=Times New Roman;" vertex="1" parent="A0dzTfghXdayMWGV7KRl-123">
          <mxGeometry x="320" y="394.71000000000004" width="40" height="20" as="geometry" />
        </mxCell>
        <mxCell id="A0dzTfghXdayMWGV7KRl-111" value="" style="rounded=1;whiteSpace=wrap;html=1;rotation=90;fillColor=#fff2cc;strokeColor=default;labelBackgroundColor=none;fontFamily=Times New Roman;" vertex="1" parent="A0dzTfghXdayMWGV7KRl-123">
          <mxGeometry x="447" y="394.71000000000004" width="40" height="20" as="geometry" />
        </mxCell>
        <mxCell id="A0dzTfghXdayMWGV7KRl-112" value="&lt;font style=&quot;font-size: 12px;&quot;&gt;PCIE&lt;/font&gt;" style="strokeWidth=2;strokeColor=#000000;dashed=0;align=center;html=1;fontSize=12;shape=mxgraph.eip.messageChannel;fontStyle=1;labelBackgroundColor=none;fontFamily=Times New Roman;" vertex="1" parent="A0dzTfghXdayMWGV7KRl-123">
          <mxGeometry x="24" width="500" height="20" as="geometry" />
        </mxCell>
        <mxCell id="A0dzTfghXdayMWGV7KRl-113" value="Match" style="edgeStyle=orthogonalEdgeStyle;rounded=0;orthogonalLoop=1;jettySize=auto;html=1;exitX=0;exitY=0.5;exitDx=0;exitDy=0;labelBackgroundColor=none;fontStyle=1;verticalAlign=bottom;horizontal=0;fontFamily=Times New Roman;entryX=0.5;entryY=0;entryDx=0;entryDy=0;" edge="1" parent="A0dzTfghXdayMWGV7KRl-123" source="A0dzTfghXdayMWGV7KRl-116" target="A0dzTfghXdayMWGV7KRl-119">
          <mxGeometry relative="1" as="geometry">
            <mxPoint x="542.5" y="310" as="targetPoint" />
            <mxPoint x="542.5" y="130" as="sourcePoint" />
            <Array as="points">
              <mxPoint x="630" y="100" />
              <mxPoint x="600" y="100" />
              <mxPoint x="600" y="260" />
              <mxPoint x="543" y="260" />
            </Array>
          </mxGeometry>
        </mxCell>
        <mxCell id="A0dzTfghXdayMWGV7KRl-114" value="Hash Table" style="rounded=0;whiteSpace=wrap;html=1;fillColor=#f5f5f5;fontColor=#333333;strokeColor=#666666;" vertex="1" parent="A0dzTfghXdayMWGV7KRl-123">
          <mxGeometry x="630" y="40" width="120" height="40" as="geometry" />
        </mxCell>
        <mxCell id="A0dzTfghXdayMWGV7KRl-115" value="Flow 1" style="rounded=0;whiteSpace=wrap;html=1;fillColor=#fff2cc;strokeColor=#000000;" vertex="1" parent="A0dzTfghXdayMWGV7KRl-123">
          <mxGeometry x="630" y="80" width="120" height="20" as="geometry" />
        </mxCell>
        <mxCell id="A0dzTfghXdayMWGV7KRl-116" value="......" style="rounded=0;whiteSpace=wrap;html=1;" vertex="1" parent="A0dzTfghXdayMWGV7KRl-123">
          <mxGeometry x="630" y="100" width="120" height="20" as="geometry" />
        </mxCell>
        <mxCell id="A0dzTfghXdayMWGV7KRl-117" value="Flow n" style="rounded=0;whiteSpace=wrap;html=1;" vertex="1" parent="A0dzTfghXdayMWGV7KRl-123">
          <mxGeometry x="630" y="120" width="120" height="20" as="geometry" />
        </mxCell>
        <mxCell id="A0dzTfghXdayMWGV7KRl-118" style="edgeStyle=orthogonalEdgeStyle;rounded=0;orthogonalLoop=1;jettySize=auto;html=1;exitX=0.5;exitY=1;exitDx=0;exitDy=0;entryX=1;entryY=0;entryDx=0;entryDy=0;" edge="1" parent="A0dzTfghXdayMWGV7KRl-123" source="A0dzTfghXdayMWGV7KRl-119" target="A0dzTfghXdayMWGV7KRl-58">
          <mxGeometry relative="1" as="geometry">
            <Array as="points">
              <mxPoint x="543" y="330" />
              <mxPoint x="142" y="330" />
            </Array>
          </mxGeometry>
        </mxCell>
        <mxCell id="A0dzTfghXdayMWGV7KRl-119" value="" style="rounded=1;whiteSpace=wrap;html=1;fillColor=#fff2cc;strokeColor=default;labelBackgroundColor=none;labelPosition=center;verticalLabelPosition=bottom;align=center;verticalAlign=top;fontFamily=Times New Roman;" vertex="1" parent="A0dzTfghXdayMWGV7KRl-123">
          <mxGeometry x="523" y="290" width="40" height="20" as="geometry" />
        </mxCell>
        <mxCell id="A0dzTfghXdayMWGV7KRl-120" value="CORE" style="ellipse;whiteSpace=wrap;html=1;aspect=fixed;fillColor=#dae8fc;strokeColor=#000000;labelBackgroundColor=none;fontFamily=Times New Roman;" vertex="1" parent="A0dzTfghXdayMWGV7KRl-123">
          <mxGeometry x="213" y="340" width="80" height="80" as="geometry" />
        </mxCell>
        <mxCell id="A0dzTfghXdayMWGV7KRl-121" value="Submit" style="shape=flexArrow;endArrow=classic;html=1;rounded=0;verticalAlign=top;labelBackgroundColor=none;fontStyle=1;fillColor=#f5f5f5;strokeColor=default;fontFamily=Times New Roman;" edge="1" parent="A0dzTfghXdayMWGV7KRl-123">
          <mxGeometry width="50" height="50" relative="1" as="geometry">
            <mxPoint x="510" y="405" as="sourcePoint" />
            <mxPoint x="630" y="405" as="targetPoint" />
          </mxGeometry>
        </mxCell>
        <mxCell id="A0dzTfghXdayMWGV7KRl-122" value="" style="endArrow=none;html=1;rounded=0;dashed=1;" edge="1" parent="A0dzTfghXdayMWGV7KRl-123">
          <mxGeometry width="50" height="50" relative="1" as="geometry">
            <mxPoint y="280" as="sourcePoint" />
            <mxPoint x="600" y="280" as="targetPoint" />
          </mxGeometry>
        </mxCell>
      </root>
    </mxGraphModel>
  </diagram>
</mxfile>
